<?xml version="1.0" encoding="UTF-8"?><svg id="_레이어_2" xmlns="http://www.w3.org/2000/svg" viewBox="0 0 1276.21 414.77"><g id="_레이어_1-2"><path d="M229.96,0c8.15,5,11.82,13.22,10.02,23.12-6.63,36.36-11.6,72.93-14.75,109.75-.24,2.8-.27,5.62-.4,8.47,2.12.21,3.29-1.14,4.64-1.99,41.13-25.88,82.22-51.84,124.49-75.84,7.34-4.17,12.95-10.42,19.43-15.62,15.11-12.11,31.26-22.1,50.77-25.34,3.1-.51,6.29-.59,9.45-.61,6.05-.03,7.88,1.36,8.21,7.43.57,10.6-1.44,19.92-10.41,27.55-23.72,20.21-50.07,36.36-76.97,51.72-28.32,16.18-57.24,31.33-85.07,48.29-15.02,9.15-29.87,18.69-44.79,28.06-4.24,2.66-4.22,3.85.07,6.71,21.21,14.12,42.86,27.66,62.94,43.32,14.78,11.53,30.36,21.17,47.2,29.44,25.77,12.66,48.24,30.76,71.98,46.74,5.23,3.52,10.33,5.08,16.61,5.09,26.36.04,51.75-4.07,75.28-16.51,20.69-10.94,34.71-27.12,38.73-50.85.84-4.97.7-9.95.41-14.94-.16-2.81-1.64-4.92-3.69-6.82-12.84-11.87-28.07-13.75-43.83-8.71-27.46,8.78-44.07,28.73-53.14,55.41-1.09,3.21-.77,6.92-.96,10.4-.14,2.55-.85,4.66-3.54,5.38-7.54,2.01-15.07,4.1-22.68,5.81-3.35.75-6.93,1.17-10.3-.45-5.21-2.51-8.84-5.83-9.42-12.27-2.21-24.78-2.03-49.53-.87-74.36,1-21.29,7.52-41.89,7.43-63.3-.02-4.16,2.29-7.15,6.13-8.93,7.29-3.37,14.92-5.63,22.83-7,4.31-.75,6.89.82,8.3,5.08,4.04,12.19,3.27,24.65,2.35,37.11-.82,11.12-2.52,22.16-2.75,33.33-.03,1.3-.28,3.22.43,3.79,1.36,1.09,2.72-.54,3.94-1.26,23.98-14.2,49.73-21.25,77.73-19.36,18.7,1.26,35.24,7.36,50.86,18.27,20.25,14.13,21.63,32.79,16.6,53.81-5.71,23.85-21.66,40.05-41.53,52.81-26.62,17.09-56.23,25.32-87.49,28.09-3.95.35-7.04.58-7.5,5.65-.37,4.13-4.53,5.28-7.27,7.62-5.78,4.93-11.52,4.9-18.41,2.37-26.22-9.6-50.66-22.71-74.79-36.53-40.47-23.18-79-49.45-118.62-73.99-2.47-1.53-5.3-4.98-7.57-3.7-2.26,1.27-.82,5.49-.77,8.39.86,48.12,2.9,96.19,6.36,144.2.48,6.67,0,13.29-.66,19.91h-19c-9.02-2.37-13.09-8.79-14.35-17.51-.05-.32-.24-.62-.34-.94-4.81-14.84-9.25-29.83-13.67-44.74-5.45-18.41-6.22-38-7.64-57.25-1.72-23.41-2.66-46.86-2.91-70.33-.04-3.6-1.15-3.25-3.71-2-12.08,5.89-23.05,13.67-34.84,20.1-22.18,12.1-43.45,25.86-65.62,38.03-12.42,6.82-25.3,12.59-38.79,16.94-4.76,1.54-9.72,2.91-14.42-.22C6.37,294.64,3.22,292.18,0,289.84c0-.67,0-1.33,0-2,5.34-8.13,13.37-12.48,22.06-16.09,6.29-2.61,12.5-5.45,18.21-9.26,23.82-15.88,47.67-31.72,71.51-47.58,9.01-5.99,18.03-11.96,26.99-18.02,1.05-.71,4.01-1.51.89-3.3-4.92-2.82-9-6.79-14.03-9.51-24.02-12.94-48.02-25.92-71.83-39.24-12.21-6.83-23.86-14.63-34.28-24.04-6.31-5.69-6.29-13.75-.31-19.57,5.07-4.93,10.97-8.59,17.3-11.69,4.65-2.28,8.69-1.7,13.14.97,15.77,9.44,30.51,20.34,47.99,27.26,20.21,7.99,39,19.39,57.63,30.74,4.09,2.49,8.2,4.93,12.6,7.58.35-1.8.75-3.08.83-4.38,1.31-20.79,4.4-41.34,8.31-61.78,5.04-26.32,11.58-52.25,21.19-77.33,1.34-3.51,3.34-5.71,7.04-7,4.95-1.73,10.14-2.93,14.73-5.61h10Z" fill="#fbaf17" stroke-width="0"/><path d="M1209.39,192.64c14.89,3.04,28.84,7.21,40.81,16.32,34.62,26.36,34.69,81.66.19,109.28-16.54,13.24-36.01,18.91-56.58,21.58-11.92,1.54-23.91,1.57-35.9,1.56-42.64-.04-85.29-.07-127.93.08-4.09.01-5.29-.93-5.28-5.17.13-90.91.12-181.83.01-272.74,0-4.02.87-5.33,5.14-5.32,43.64.16,87.28-.06,130.93.17,20.49.11,40.89,1.24,60.54,8.24,28.74,10.24,43.8,31.64,43.37,62.32-.39,28.5-18.16,52.25-45.52,60.82-3.24,1.01-6.51,1.91-9.77,2.86ZM1123.25,309.11c6,0,12,.04,17.99,0,15.14-.13,30.3.57,45.34-2.21,25.46-4.7,38.96-16.99,41.66-40.09,2.73-23.39-6.33-42-30.08-50.84-10.9-4.06-22.27-5.83-33.76-5.95-30.15-.31-60.31-.12-90.47-.28-3.25-.02-4.19.86-4.17,4.15.12,30.31.13,60.62,0,90.93-.02,3.59,1.13,4.4,4.52,4.36,16.33-.16,32.65-.07,48.98-.07ZM1125.28,90.79c-19.19,0-35.17.11-51.15-.08-3.57-.04-4.4,1.04-4.38,4.48.14,25.96.19,51.91-.04,77.87-.04,4.29,1.56,4.76,5.16,4.75,28.8-.12,57.59-.03,86.39-.09,6.99-.02,13.97-.6,20.85-1.9,26.74-5.05,39.8-20.59,38.66-45.92-.75-16.71-9.14-28.18-24.88-33.8-5.97-2.13-12.16-3.39-18.45-4.14-18.42-2.18-36.92-.64-52.16-1.17Z" fill="#f3f3f3" stroke-width="0"/><path d="M763.87,189.37v6.46c0,46.46-.08,92.92.12,139.38.02,4.74-1.4,5.74-5.81,5.62-11.32-.3-22.66-.3-33.98,0-4.26.11-5.62-.8-5.58-5.39.23-31.14.12-62.28.12-93.42,0-59.45.07-118.9-.13-178.35-.02-5,1.42-6.01,6.09-5.87,11.15.36,22.33.31,33.48.02,4.36-.11,5.85.81,5.82,5.58-.22,38.13-.12,76.27-.12,114.4v6.49c8.2-6.79,15.69-12.97,23.16-19.18,41.98-34.93,83.96-69.87,125.94-104.82,1.54-1.28,2.96-2.44,5.23-2.43,19.98.08,39.97.05,60.03.05.19,2.07-1.56,2.49-2.59,3.31-50.69,40.32-101.38,80.65-152.19,120.82-3.92,3.1-3.33,4.54.02,7.51,55.43,49.19,110.76,98.5,166.11,147.77.95.84,1.97,1.59,2.36,3.4-2.26,0-4.52,0-6.78,0-12.33,0-24.75-.94-36.96.25-13.58,1.32-23.07-3.55-32.88-12.72-48.54-45.38-97.79-89.99-146.8-134.87-1.22-1.11-2.49-2.16-4.64-4.02Z" fill="#f3f3f3" stroke-width="0"/></g></svg>