<svg width="50" height="50" viewBox="0 0 50 50" fill="none" xmlns="http://www.w3.org/2000/svg">
<path d="M12.5 25C12.5 31.9037 18.0963 37.5 25 37.5C31.9037 37.5 37.5 31.9037 37.5 25C37.5 18.0963 31.9037 12.5 25 12.5C18.0963 12.5 12.5 18.0963 12.5 25Z" stroke="white" stroke-width="1.5" stroke-linecap="round" stroke-linejoin="round"/>
<path d="M26.2501 12.5625C26.2501 12.5625 30.0001 17.5 30.0001 25C30.0001 32.5 26.2501 37.4375 26.2501 37.4375M23.7501 37.4375C23.7501 37.4375 20.0001 32.5 20.0001 25C20.0001 17.5 23.7501 12.5625 23.7501 12.5625M13.2876 29.375H36.7126M13.2876 20.625H36.7126" stroke="white" stroke-width="1.5" stroke-linecap="round" stroke-linejoin="round"/>
</svg>
