<svg width="17" height="30" viewBox="0 0 17 30" fill="none" xmlns="http://www.w3.org/2000/svg">
<path d="M16.5547 14.0654L2.16677 0.356522C1.9267 0.127667 1.60775 -6.70853e-07 1.27608 -6.85351e-07C0.944401 -6.99849e-07 0.625456 0.127667 0.385387 0.356522L0.369894 0.372012C0.25311 0.482957 0.160118 0.616499 0.0965728 0.764517C0.0330272 0.912534 0.000257445 1.07193 0.000257438 1.23301C0.000257431 1.39409 0.0330272 1.55349 0.0965728 1.70151C0.160118 1.84953 0.25311 1.98307 0.369894 2.09401L13.9187 15.0026L0.369893 27.906C0.253109 28.0169 0.160117 28.1505 0.0965716 28.2985C0.033026 28.4465 0.000256242 28.6059 0.000256235 28.767C0.000256228 28.9281 0.033026 29.0875 0.0965716 29.2355C0.160117 29.3835 0.253109 29.517 0.369893 29.628L0.385386 29.6435C0.625455 29.8723 0.9444 30 1.27607 30C1.60775 30 1.9267 29.8723 2.16677 29.6435L16.5547 15.9346C16.6812 15.814 16.7819 15.669 16.8508 15.5084C16.9196 15.3477 16.9551 15.1748 16.9551 15C16.9551 14.8252 16.9196 14.6523 16.8508 14.4916C16.7819 14.331 16.6812 14.186 16.5547 14.0654Z" fill="white"/>
</svg>
