<svg width="8" height="12" viewBox="0 0 8 12" fill="none" xmlns="http://www.w3.org/2000/svg">
<path d="M7.23082 5.62617L1.47567 0.142609C1.37964 0.0510667 1.25206 -2.68341e-07 1.11939 -2.7414e-07C0.98672 -2.7994e-07 0.859142 0.0510667 0.763114 0.142609L0.756917 0.148805C0.710204 0.193183 0.673007 0.2466 0.647589 0.305807C0.62217 0.365014 0.609062 0.428773 0.609062 0.493205C0.609062 0.557638 0.62217 0.621397 0.647589 0.680604C0.673007 0.739811 0.710204 0.793228 0.756917 0.837606L6.17645 6.00103L0.756917 11.1624C0.710203 11.2068 0.673006 11.2602 0.647588 11.3194C0.62217 11.3786 0.609062 11.4424 0.609062 11.5068C0.609062 11.5712 0.62217 11.635 0.647588 11.6942C0.673006 11.7534 0.710203 11.8068 0.756917 11.8512L0.763113 11.8574C0.859141 11.9489 0.986719 12 1.11939 12C1.25206 12 1.37964 11.9489 1.47567 11.8574L7.23082 6.37383C7.28144 6.32561 7.32173 6.26761 7.34926 6.20335C7.37679 6.13909 7.39099 6.06991 7.39099 6C7.39099 5.93009 7.37679 5.86091 7.34926 5.79665C7.32173 5.73239 7.28144 5.67439 7.23082 5.62617Z" fill="#111111"/>
</svg>
