<svg width="50" height="50" viewBox="0 0 50 50" fill="none" xmlns="http://www.w3.org/2000/svg">
<path d="M24.9913 25.7149C25.7299 25.7149 26.4613 25.5694 27.1438 25.2868C27.8262 25.0041 28.4463 24.5898 28.9686 24.0674C29.4909 23.5451 29.9053 22.9251 30.1879 22.2426C30.4706 21.5602 30.6161 20.8287 30.6161 20.0901C30.6161 19.3514 30.4706 18.62 30.1879 17.9375C29.9053 17.2551 29.4909 16.635 28.9686 16.1127C28.4463 15.5904 27.8262 15.1761 27.1438 14.8934C26.4613 14.6107 25.7299 14.4652 24.9913 14.4652C23.4994 14.4652 22.0687 15.0578 21.0139 16.1127C19.959 17.1676 19.3664 18.5983 19.3664 20.0901C19.3664 21.5819 19.959 23.0126 21.0139 24.0674C22.0687 25.1223 23.4994 25.7149 24.9913 25.7149ZM25 12.499C26.6465 12.4985 28.2473 13.0398 29.5557 14.0394C30.864 15.0389 31.807 16.4413 32.2392 18.03C32.6714 19.6187 32.5688 21.3055 31.9473 22.8301C31.3257 24.3548 30.2197 25.6325 28.7999 26.4662C33.4098 27.8536 36.8722 31.7385 37.4934 36.5634C37.5522 37.0221 37.2109 37.4384 36.7309 37.4946C36.2522 37.5509 35.8147 37.2259 35.756 36.7671C35.081 31.5298 30.5449 27.5861 25.0437 27.5861C19.5126 27.5861 14.9178 31.5373 14.244 36.7671C14.1853 37.2259 13.7478 37.5509 13.2691 37.4946C12.7891 37.4384 12.4478 37.0221 12.5066 36.5634C13.1266 31.7585 16.6077 27.8786 21.2251 26.4787C19.801 25.6488 18.6899 24.3728 18.0637 22.8482C17.4375 21.3235 17.331 19.635 17.7607 18.0437C18.1904 16.4524 19.1323 15.047 20.4409 14.0448C21.7494 13.0425 23.3517 12.4993 25 12.499Z" fill="white"/>
</svg>
