<svg width="30" height="36" viewBox="0 0 30 36" fill="none" xmlns="http://www.w3.org/2000/svg">
<path fill-rule="evenodd" clip-rule="evenodd" d="M24.0899 0.273072C23.2254 0.272782 22.3713 0.462197 21.588 0.827955C20.8046 1.19371 20.1111 1.7269 19.5563 2.38991C19.0014 3.05293 18.5989 3.8296 18.3769 4.66516C18.155 5.50071 18.1191 6.37479 18.2718 7.22573L9.67187 13.2475C9.62886 13.2772 9.58758 13.3094 9.54823 13.3438C8.67576 12.6618 7.62919 12.2387 6.52787 12.1227C5.42654 12.0067 4.31479 12.2026 3.31939 12.6879C2.32399 13.1732 1.485 13.9285 0.898097 14.8676C0.311195 15.8067 0 16.8918 0 17.9992C0 19.1067 0.311195 20.1918 0.898097 21.1309C1.485 22.07 2.32399 22.8253 3.31939 23.3106C4.31479 23.7959 5.42654 23.9918 6.52787 23.8758C7.62919 23.7598 8.67576 23.3367 9.54823 22.6547C9.58753 22.6897 9.62881 22.7225 9.67187 22.7528L18.2718 28.7746C18.0165 30.1978 18.2918 31.6651 19.0457 32.8989C19.7996 34.1327 20.9797 35.0473 22.3626 35.4695C23.7455 35.8917 25.2352 35.7922 26.5496 35.1898C27.8641 34.5875 28.9121 33.5241 29.4952 32.201C30.0783 30.8779 30.156 29.3869 29.7137 28.0103C29.2714 26.6338 28.3397 25.4671 27.0951 24.7313C25.8504 23.9955 24.3792 23.7416 22.9599 24.0176C21.5406 24.2936 20.2717 25.0805 19.3936 26.2292L11.25 20.5292C11.6137 19.762 11.8173 18.9056 11.8173 18.0002C11.8173 17.0947 11.6137 16.2365 11.25 15.4711L19.3954 9.76933C20.0056 10.568 20.8093 11.1978 21.7307 11.5993C22.6521 12.0007 23.6607 12.1605 24.6611 12.0636C25.6614 11.9666 26.6205 11.6161 27.4477 11.0451C28.2748 10.4742 28.9427 9.70171 29.3881 8.80073C29.8335 7.89976 30.0417 6.90006 29.9931 5.89618C29.9444 4.8923 29.6406 3.91742 29.1102 3.06371C28.5798 2.21 27.8404 1.50569 26.9619 1.01738C26.0835 0.529067 25.095 0.272889 24.0899 0.273072ZM20.9081 6.1821C20.9081 5.33824 21.2433 4.52894 21.84 3.93224C22.4367 3.33554 23.246 3.00032 24.0899 3.00032C24.9338 3.00032 25.7431 3.33554 26.3398 3.93224C26.9365 4.52894 27.2717 5.33824 27.2717 6.1821C27.2717 7.02596 26.9365 7.83526 26.3398 8.43196C25.7431 9.02866 24.9338 9.36388 24.0899 9.36388C23.246 9.36388 22.4367 9.02866 21.84 8.43196C21.2433 7.83526 20.9081 7.02596 20.9081 6.1821ZM5.90827 14.8184C5.06441 14.8184 4.25511 15.1536 3.65841 15.7503C3.06171 16.347 2.72649 17.1563 2.72649 18.0002C2.72649 18.844 3.06171 19.6533 3.65841 20.25C4.25511 20.8467 5.06441 21.1819 5.90827 21.1819C6.75213 21.1819 7.56143 20.8467 8.15813 20.25C8.75483 19.6533 9.09006 18.844 9.09006 18.0002C9.09006 17.1563 8.75483 16.347 8.15813 15.7503C7.56143 15.1536 6.75213 14.8184 5.90827 14.8184ZM24.0899 26.6364C23.246 26.6364 22.4367 26.9717 21.84 27.5684C21.2433 28.1651 20.9081 28.9744 20.9081 29.8182C20.9081 30.6621 21.2433 31.4714 21.84 32.0681C22.4367 32.6648 23.246 33 24.0899 33C24.9338 33 25.7431 32.6648 26.3398 32.0681C26.9365 31.4714 27.2717 30.6621 27.2717 29.8182C27.2717 28.9744 26.9365 28.1651 26.3398 27.5684C25.7431 26.9717 24.9338 26.6364 24.0899 26.6364Z" fill="black"/>
</svg>
