<svg width="26" height="26" viewBox="0 0 26 26" fill="none" xmlns="http://www.w3.org/2000/svg">
<path d="M12.9912 13.7149C13.7299 13.7149 14.4613 13.5694 15.1438 13.2868C15.8262 13.0041 16.4463 12.5898 16.9686 12.0674C17.4909 11.5451 17.9053 10.9251 18.1879 10.2426C18.4706 9.56017 18.6161 8.82874 18.6161 8.09007C18.6161 7.35141 18.4706 6.61997 18.1879 5.93754C17.9053 5.2551 17.4909 4.63502 16.9686 4.1127C16.4463 3.59039 15.8262 3.17606 15.1438 2.89339C14.4613 2.61071 13.7299 2.46522 12.9912 2.46522C11.4994 2.46522 10.0687 3.05784 9.01388 4.1127C7.95901 5.16757 7.3664 6.59827 7.3664 8.09007C7.3664 9.58188 7.95901 11.0126 9.01388 12.0674C10.0687 13.1223 11.4994 13.7149 12.9912 13.7149ZM13 0.499024C14.6465 0.498488 16.2473 1.03977 17.5557 2.03936C18.864 3.03894 19.807 4.44128 20.2392 6.02999C20.6714 7.61871 20.5688 9.30551 19.9473 10.8301C19.3257 12.3548 18.2197 13.6325 16.7999 14.4662C21.4098 15.8536 24.8722 19.7385 25.4934 24.5634C25.5522 25.0221 25.2109 25.4384 24.7309 25.4946C24.2522 25.5509 23.8147 25.2259 23.756 24.7671C23.081 19.5298 18.5449 15.5861 13.0437 15.5861C7.51264 15.5861 2.91777 19.5373 2.24403 24.7671C2.18528 25.2259 1.7478 25.5509 1.26906 25.4946C0.789071 25.4384 0.44783 25.0221 0.506579 24.5634C1.12656 19.7585 4.60772 15.8786 9.2251 14.4787C7.80099 13.6488 6.68994 12.3728 6.06373 10.8482C5.43752 9.32348 5.33102 7.63497 5.76071 6.04369C6.1904 4.45241 7.13234 3.04701 8.4409 2.04477C9.74945 1.04253 11.3517 0.499285 13 0.499024Z" fill="#111111"/>
</svg>
