<svg width="20" height="20" viewBox="0 0 20 20" fill="none" xmlns="http://www.w3.org/2000/svg">
<path d="M12.154 9.75078L8.31719 6.09507C8.25317 6.03404 8.16812 6 8.07967 6C7.99123 6 7.90618 6.03404 7.84216 6.09507L7.83803 6.0992C7.80688 6.12879 7.78209 6.1644 7.76514 6.20387C7.7482 6.24334 7.73946 6.28585 7.73946 6.3288C7.73946 6.37176 7.7482 6.41426 7.76514 6.45374C7.78209 6.49321 7.80688 6.52882 7.83803 6.5584L11.451 10.0007L7.83803 13.4416C7.80688 13.4712 7.78209 13.5068 7.76514 13.5463C7.7482 13.5857 7.73946 13.6282 7.73946 13.6712C7.73946 13.7142 7.7482 13.7567 7.76514 13.7961C7.78209 13.8356 7.80688 13.8712 7.83803 13.9008L7.84216 13.9049C7.90618 13.966 7.99123 14 8.07967 14C8.16812 14 8.25317 13.966 8.31719 13.9049L12.154 10.2492C12.1877 10.2171 12.2146 10.1784 12.2329 10.1356C12.2513 10.0927 12.2607 10.0466 12.2607 10C12.2607 9.95339 12.2513 9.90727 12.2329 9.86443C12.2146 9.82159 12.1877 9.78293 12.154 9.75078Z" fill="white"/>
</svg>
