<svg width="20" height="21" viewBox="0 0 20 21" fill="none" xmlns="http://www.w3.org/2000/svg">
<path d="M15.6252 8.625C15.6252 7.13316 15.0326 5.70242 13.9777 4.64752C12.9228 3.59263 11.4921 3 10.0002 3C8.5084 3 7.07766 3.59263 6.02277 4.64752C4.96788 5.70242 4.37524 7.13316 4.37524 8.625C4.37524 10.6387 5.78123 13.1854 8.65053 16.1954C9.38706 16.9681 10.6134 16.9681 11.35 16.1954C14.2193 13.1854 15.6252 10.6387 15.6252 8.625ZM11.3236 18.0022C10.5876 18.724 9.41284 18.724 8.67691 18.0022C4.9755 14.372 3.12524 11.2456 3.12524 8.625C3.12524 6.80164 3.84957 5.05295 5.13889 3.76364C6.4282 2.47433 8.17688 1.75 10.0002 1.75C11.8236 1.75 13.5723 2.47433 14.8616 3.76364C16.1509 5.05295 16.8752 6.80164 16.8752 8.625C16.8752 11.2456 15.025 14.372 11.3236 18.0022Z" fill="black"/>
<path d="M10.0002 10.5C10.4975 10.5 10.9744 10.3025 11.3261 9.95083C11.6777 9.59919 11.8752 9.12228 11.8752 8.625C11.8752 8.12772 11.6777 7.65081 11.3261 7.29917C10.9744 6.94754 10.4975 6.75 10.0002 6.75C9.50296 6.75 9.02605 6.94754 8.67442 7.29917C8.32279 7.65081 8.12524 8.12772 8.12524 8.625C8.12524 9.12228 8.32279 9.59919 8.67442 9.95083C9.02605 10.3025 9.50296 10.5 10.0002 10.5ZM10.0002 11.75C9.17144 11.75 8.37659 11.4208 7.79054 10.8347C7.20448 10.2487 6.87524 9.4538 6.87524 8.625C6.87524 7.7962 7.20448 7.00134 7.79054 6.41529C8.37659 5.82924 9.17144 5.5 10.0002 5.5C10.829 5.5 11.6239 5.82924 12.21 6.41529C12.796 7.00134 13.1252 7.7962 13.1252 8.625C13.1252 9.4538 12.796 10.2487 12.21 10.8347C11.6239 11.4208 10.829 11.75 10.0002 11.75Z" fill="black"/>
</svg>
