<svg width="50" height="50" viewBox="0 0 50 50" fill="none" xmlns="http://www.w3.org/2000/svg">
<path d="M36.5 36.5L30.9507 30.9507M30.9507 30.9507C31.8999 30.0014 32.6529 28.8745 33.1666 27.6343C33.6803 26.3941 33.9447 25.0648 33.9447 23.7224C33.9447 22.3799 33.6803 21.0507 33.1666 19.8104C32.6529 18.5702 31.8999 17.4433 30.9507 16.4941C30.0014 15.5448 28.8745 14.7919 27.6343 14.2781C26.3941 13.7644 25.0648 13.5 23.7224 13.5C22.3799 13.5 21.0507 13.7644 19.8104 14.2781C18.5702 14.7919 17.4433 15.5448 16.4941 16.4941C14.577 18.4111 13.5 21.0112 13.5 23.7224C13.5 26.4335 14.577 29.0336 16.4941 30.9507C18.4111 32.8677 21.0112 33.9447 23.7224 33.9447C26.4335 33.9447 29.0336 32.8677 30.9507 30.9507Z" stroke="white" stroke-width="2" stroke-linecap="round" stroke-linejoin="round"/>
</svg>
