<svg width="20" height="20" viewBox="0 0 20 20" fill="none" xmlns="http://www.w3.org/2000/svg">
<path d="M9.23077 9.23077V0.769231C9.23077 0.565218 9.31181 0.369561 9.45607 0.225302C9.60033 0.0810437 9.79599 0 10 0C10.204 0 10.3997 0.0810437 10.5439 0.225302C10.6882 0.369561 10.7692 0.565218 10.7692 0.769231V9.23077H19.2308C19.4348 9.23077 19.6304 9.31181 19.7747 9.45607C19.919 9.60033 20 9.79599 20 10C20 10.204 19.919 10.3997 19.7747 10.5439C19.6304 10.6882 19.4348 10.7692 19.2308 10.7692H10.7692V19.2308C10.7692 19.4348 10.6882 19.6304 10.5439 19.7747C10.3997 19.919 10.204 20 10 20C9.79599 20 9.60033 19.919 9.45607 19.7747C9.31181 19.6304 9.23077 19.4348 9.23077 19.2308V10.7692H0.769231C0.565218 10.7692 0.369561 10.6882 0.225302 10.5439C0.0810437 10.3997 0 10.204 0 10C0 9.79599 0.0810437 9.60033 0.225302 9.45607C0.369561 9.31181 0.565218 9.23077 0.769231 9.23077H9.23077Z" fill="black"/>
</svg>
