<svg width="28" height="28" viewBox="0 0 28 28" fill="none" xmlns="http://www.w3.org/2000/svg">
<path d="M1.5 14C1.5 20.9037 7.09625 26.5 14 26.5C20.9037 26.5 26.5 20.9037 26.5 14C26.5 7.09625 20.9037 1.5 14 1.5C7.09625 1.5 1.5 7.09625 1.5 14Z" stroke="#111111" stroke-width="1.5" stroke-linecap="round" stroke-linejoin="round"/>
<path d="M15.2501 1.5625C15.2501 1.5625 19.0001 6.5 19.0001 14C19.0001 21.5 15.2501 26.4375 15.2501 26.4375M12.7501 26.4375C12.7501 26.4375 9.0001 21.5 9.0001 14C9.0001 6.5 12.7501 1.5625 12.7501 1.5625M2.2876 18.375H25.7126M2.2876 9.625H25.7126" stroke="#111111" stroke-width="1.5" stroke-linecap="round" stroke-linejoin="round"/>
</svg>
