<svg width="30" height="14" viewBox="0 0 30 14" fill="none" xmlns="http://www.w3.org/2000/svg">
<path d="M4.34269 3.22981C4.34269 3.22981 3.29637 3.22981 2.34663 4.15451V0.430664H0V10.2107H2.37167V9.44515C2.37167 9.44515 2.9315 10.4557 4.34269 10.4557C4.34269 10.4557 7.65158 10.3341 7.65158 6.80519C7.65158 6.80519 7.52996 3.22802 4.34269 3.22802V3.22981ZM3.82579 8.39167C2.99231 8.39167 2.31622 7.71559 2.31622 6.8821C2.31622 6.04862 2.99231 5.37432 3.82579 5.37432C4.65927 5.37432 5.33357 6.05041 5.33357 6.8821C5.33357 7.7138 4.65749 8.39167 3.82579 8.39167Z" fill="black"/>
<path d="M8.40625 0.212158V2.47472C8.40625 2.47472 9.47761 2.42643 9.47761 4.42071V10.2104H11.7402V3.88592C11.7402 3.88592 11.8368 0.212158 8.40625 0.212158Z" fill="black"/>
<path d="M17.2725 3.26013C17.2725 3.26013 13.393 3.26013 13.393 6.88202C13.393 6.88202 13.2678 10.4556 17.2725 10.4556C17.2725 10.4556 21.2413 10.4503 21.2413 6.88202C21.2413 6.88202 21.3701 3.26013 17.2725 3.26013ZM17.2725 8.39159C16.439 8.39159 15.7629 7.71551 15.7629 6.88202C15.7629 6.04854 16.439 5.37424 17.2725 5.37424C18.1059 5.37424 18.7802 6.05033 18.7802 6.88202C18.7802 7.71372 18.1042 8.39159 17.2725 8.39159Z" fill="black"/>
<path d="M27.7179 3.49808V4.15449C27.7179 4.15449 27.0436 3.2602 25.7487 3.2602C25.7487 3.2602 22.4273 3.12069 22.4273 6.85705C22.4273 6.85705 22.3897 10.3394 25.6575 10.3394C25.6575 10.3394 26.99 10.3931 27.7179 9.44513V9.99244C27.7179 9.99244 27.8825 11.7077 26.2227 11.7077H25.6575V13.7878H26.5696C26.5696 13.7878 30.0001 13.8254 30.0001 10.1212V3.49808H27.7197H27.7179ZM26.3157 8.39166C25.4822 8.39166 24.8079 7.71557 24.8079 6.88209C24.8079 6.0486 25.4822 5.37431 26.3157 5.37431C27.1491 5.37431 27.8234 6.05039 27.8234 6.88209C27.8234 7.71378 27.1474 8.39166 26.3157 8.39166Z" fill="black"/>
</svg>
