<svg width="21" height="21" viewBox="0 0 21 21" fill="none" xmlns="http://www.w3.org/2000/svg">
<path d="M16.125 8.625C16.125 7.13316 15.5324 5.70242 14.4775 4.64752C13.4226 3.59263 11.9918 3 10.5 3C9.00816 3 7.57742 3.59263 6.52252 4.64752C5.46763 5.70242 4.875 7.13316 4.875 8.625C4.875 10.6387 6.28099 13.1854 9.15029 16.1954C9.88681 16.9681 11.1132 16.9681 11.8497 16.1954C14.719 13.1854 16.125 10.6387 16.125 8.625ZM11.8233 18.0022C11.0874 18.724 9.9126 18.724 9.17667 18.0022C5.47525 14.372 3.625 11.2456 3.625 8.625C3.625 6.80164 4.34933 5.05295 5.63864 3.76364C6.92795 2.47433 8.67664 1.75 10.5 1.75C12.3234 1.75 14.072 2.47433 15.3614 3.76364C16.6507 5.05295 17.375 6.80164 17.375 8.625C17.375 11.2456 15.5247 14.372 11.8233 18.0022Z" fill="black"/>
<path d="M10.5 11.2C11.2161 11.2 11.9028 10.9155 12.4092 10.4092C12.9155 9.90284 13.2 9.21608 13.2 8.5C13.2 7.78392 12.9155 7.09716 12.4092 6.59081C11.9028 6.08446 11.2161 5.8 10.5 5.8C9.78392 5.8 9.09716 6.08446 8.59081 6.59081C8.08446 7.09716 7.8 7.78392 7.8 8.5C7.8 9.21608 8.08446 9.90284 8.59081 10.4092C9.09716 10.9155 9.78392 11.2 10.5 11.2ZM10.5 13C9.30653 13 8.16193 12.5259 7.31802 11.682C6.47411 10.8381 6 9.69347 6 8.5C6 7.30653 6.47411 6.16193 7.31802 5.31802C8.16193 4.47411 9.30653 4 10.5 4C11.6935 4 12.8381 4.47411 13.682 5.31802C14.5259 6.16193 15 7.30653 15 8.5C15 9.69347 14.5259 10.8381 13.682 11.682C12.8381 12.5259 11.6935 13 10.5 13Z" fill="black"/>
<path d="M9 11.5L6.5 14L10.5 17.5L14 14.5L16.5 10.5V6.5L14 3.5L10.5 5.5L12.5 6L13.5 8.5L12.5 11L10.5 11.5H9Z" fill="black"/>
<path d="M5.5 12L7 14.5L9 11L7.5 9.5L8 6.5L10 5.5L12 6L14 4V3L8.5 2.5L5.5 5L4.5 8L5.5 12Z" fill="black"/>
</svg>
