<svg width="178" height="19" viewBox="0 0 178 19" fill="none" xmlns="http://www.w3.org/2000/svg">
<path d="M8.38 15.28C7.27333 15.28 6.24667 15.1067 5.3 14.76C4.36667 14.4 3.55333 13.8933 2.86 13.24C2.18 12.5867 1.64667 11.82 1.26 10.94C0.873333 10.0467 0.68 9.06667 0.68 8C0.68 6.93333 0.873333 5.96 1.26 5.08C1.64667 4.18667 2.18 3.41333 2.86 2.76C3.55333 2.10667 4.36667 1.60667 5.3 1.26C6.24667 0.899999 7.27333 0.719999 8.38 0.719999C9.67333 0.719999 10.8267 0.946666 11.84 1.4C12.8667 1.85333 13.72 2.50667 14.4 3.36L11.88 5.64C11.4267 5.10667 10.9267 4.7 10.38 4.42C9.84667 4.14 9.24667 4 8.58 4C8.00667 4 7.48 4.09333 7 4.28C6.52 4.46667 6.10667 4.74 5.76 5.1C5.42667 5.44667 5.16 5.86667 4.96 6.36C4.77333 6.85333 4.68 7.4 4.68 8C4.68 8.6 4.77333 9.14667 4.96 9.64C5.16 10.1333 5.42667 10.56 5.76 10.92C6.10667 11.2667 6.52 11.5333 7 11.72C7.48 11.9067 8.00667 12 8.58 12C9.24667 12 9.84667 11.86 10.38 11.58C10.9267 11.3 11.4267 10.8933 11.88 10.36L14.4 12.64C13.72 13.48 12.8667 14.1333 11.84 14.6C10.8267 15.0533 9.67333 15.28 8.38 15.28ZM22.9327 15.28C21.8127 15.28 20.7793 15.1 19.8327 14.74C18.886 14.38 18.0593 13.8733 17.3527 13.22C16.6593 12.5533 16.1193 11.78 15.7327 10.9C15.346 10.02 15.1527 9.05333 15.1527 8C15.1527 6.94667 15.346 5.98 15.7327 5.1C16.1193 4.22 16.6593 3.45333 17.3527 2.8C18.0593 2.13333 18.886 1.62 19.8327 1.26C20.7793 0.899999 21.8127 0.719999 22.9327 0.719999C24.066 0.719999 25.0993 0.899999 26.0327 1.26C26.9793 1.62 27.7993 2.13333 28.4927 2.8C29.186 3.45333 29.726 4.22 30.1127 5.1C30.5127 5.98 30.7127 6.94667 30.7127 8C30.7127 9.05333 30.5127 10.0267 30.1127 10.92C29.726 11.8 29.186 12.5667 28.4927 13.22C27.7993 13.8733 26.9793 14.38 26.0327 14.74C25.0993 15.1 24.066 15.28 22.9327 15.28ZM22.9327 12C23.466 12 23.9593 11.9067 24.4127 11.72C24.8793 11.5333 25.2793 11.2667 25.6127 10.92C25.9593 10.56 26.226 10.1333 26.4127 9.64C26.6127 9.14667 26.7127 8.6 26.7127 8C26.7127 7.38667 26.6127 6.84 26.4127 6.36C26.226 5.86667 25.9593 5.44667 25.6127 5.1C25.2793 4.74 24.8793 4.46667 24.4127 4.28C23.9593 4.09333 23.466 4 22.9327 4C22.3993 4 21.8993 4.09333 21.4327 4.28C20.9793 4.46667 20.5793 4.74 20.2327 5.1C19.8993 5.44667 19.6327 5.86667 19.4327 6.36C19.246 6.84 19.1527 7.38667 19.1527 8C19.1527 8.6 19.246 9.14667 19.4327 9.64C19.6327 10.1333 19.8993 10.56 20.2327 10.92C20.5793 11.2667 20.9793 11.5333 21.4327 11.72C21.8993 11.9067 22.3993 12 22.9327 12ZM36.4267 6.42H42.9267V9.38H36.4267V6.42ZM36.7067 11.94H44.0267V15H32.7867V0.999999H43.7667V4.06H36.7067V11.94ZM44.667 15L50.787 6.5L50.767 9.32L44.887 0.999999H49.347L53.107 6.42L51.207 6.44L54.907 0.999999H59.187L53.307 9.16V6.36L59.507 15H54.947L51.127 9.3H52.947L49.187 15H44.667ZM58.4114 15L64.5914 0.999999H68.4914L74.6914 15H70.5714L65.7314 2.94H67.2914L62.4514 15H58.4114ZM61.7914 12.28L62.8114 9.36H69.6514L70.6714 12.28H61.7914ZM82.6788 15.28C81.5588 15.28 80.5254 15.1 79.5788 14.74C78.6321 14.38 77.8054 13.8733 77.0988 13.22C76.4054 12.5533 75.8654 11.78 75.4788 10.9C75.0921 10.02 74.8988 9.05333 74.8988 8C74.8988 6.94667 75.0921 5.98 75.4788 5.1C75.8654 4.22 76.4054 3.45333 77.0988 2.8C77.8054 2.13333 78.6321 1.62 79.5788 1.26C80.5254 0.899999 81.5588 0.719999 82.6788 0.719999C83.8121 0.719999 84.8454 0.899999 85.7788 1.26C86.7254 1.62 87.5454 2.12667 88.2388 2.78C88.9321 3.43333 89.4721 4.20667 89.8588 5.1C90.2588 5.98 90.4588 6.94667 90.4588 8C90.4588 9.05333 90.2588 10.0267 89.8588 10.92C89.4721 11.8 88.9321 12.5667 88.2388 13.22C87.5454 13.8733 86.7254 14.38 85.7788 14.74C84.8454 15.1 83.8121 15.28 82.6788 15.28ZM87.2588 18.38C86.6588 18.38 86.0988 18.3133 85.5788 18.18C85.0588 18.06 84.5454 17.86 84.0388 17.58C83.5454 17.3 83.0254 16.92 82.4788 16.44C81.9454 15.96 81.3454 15.3667 80.6788 14.66L84.8188 13.62C85.1521 14.1133 85.4521 14.5 85.7188 14.78C85.9854 15.06 86.2454 15.26 86.4988 15.38C86.7654 15.5 87.0454 15.56 87.3388 15.56C88.1121 15.56 88.8188 15.2333 89.4588 14.58L91.1788 16.62C90.2054 17.7933 88.8988 18.38 87.2588 18.38ZM82.6788 12C83.2121 12 83.7054 11.9067 84.1588 11.72C84.6254 11.5333 85.0254 11.2667 85.3588 10.92C85.7054 10.56 85.9721 10.1333 86.1588 9.64C86.3588 9.14667 86.4588 8.6 86.4588 8C86.4588 7.38667 86.3588 6.84 86.1588 6.36C85.9721 5.86667 85.7054 5.44667 85.3588 5.1C85.0254 4.74 84.6254 4.46667 84.1588 4.28C83.7054 4.09333 83.2121 4 82.6788 4C82.1454 4 81.6454 4.09333 81.1788 4.28C80.7254 4.46667 80.3254 4.74 79.9788 5.1C79.6454 5.44667 79.3788 5.86667 79.1788 6.36C78.9921 6.84 78.8988 7.38667 78.8988 8C78.8988 8.6 78.9921 9.14667 79.1788 9.64C79.3788 10.1333 79.6454 10.56 79.9788 10.92C80.3254 11.2667 80.7254 11.5333 81.1788 11.72C81.6454 11.9067 82.1454 12 82.6788 12ZM98.9928 15.28C96.9261 15.28 95.3128 14.7133 94.1528 13.58C92.9928 12.4467 92.4128 10.84 92.4128 8.76V0.999999H96.3728V8.64C96.3728 9.84 96.6061 10.7 97.0728 11.22C97.5528 11.74 98.2061 12 99.0328 12C99.8595 12 100.506 11.74 100.973 11.22C101.439 10.7 101.673 9.84 101.673 8.64V0.999999H105.573V8.76C105.573 10.84 104.993 12.4467 103.833 13.58C102.673 14.7133 101.059 15.28 98.9928 15.28ZM106.282 15L112.463 0.999999H116.363L122.563 15H118.443L113.603 2.94H115.163L110.323 15H106.282ZM109.663 12.28L110.683 9.36H117.523L118.543 12.28H109.663ZM123.685 15V0.999999H130.085C131.365 0.999999 132.465 1.20667 133.385 1.62C134.318 2.03333 135.038 2.63333 135.545 3.42C136.052 4.19333 136.305 5.11333 136.305 6.18C136.305 7.23333 136.052 8.14667 135.545 8.92C135.038 9.68 134.318 10.2667 133.385 10.68C132.465 11.08 131.365 11.28 130.085 11.28H125.885L127.645 9.62V15H123.685ZM132.345 15L128.865 9.9H133.085L136.585 15H132.345ZM127.645 10.04L125.885 8.22H129.845C130.672 8.22 131.285 8.04 131.685 7.68C132.098 7.32 132.305 6.82 132.305 6.18C132.305 5.52667 132.098 5.02 131.685 4.66C131.285 4.3 130.672 4.12 129.845 4.12H125.885L127.645 2.3V10.04ZM138.49 15V0.999999H142.45V15H138.49ZM151.727 15.28C149.661 15.28 148.047 14.7133 146.887 13.58C145.727 12.4467 145.147 10.84 145.147 8.76V0.999999H149.107V8.64C149.107 9.84 149.341 10.7 149.807 11.22C150.287 11.74 150.941 12 151.767 12C152.594 12 153.241 11.74 153.707 11.22C154.174 10.7 154.407 9.84 154.407 8.64V0.999999H158.307V8.76C158.307 10.84 157.727 12.4467 156.567 13.58C155.407 14.7133 153.794 15.28 151.727 15.28ZM160.99 15V0.999999H164.25L170.05 10.52H168.33L173.97 0.999999H177.23L177.27 15H173.63L173.59 6.54H174.21L169.99 13.62H168.23L163.89 6.54H164.65V15H160.99Z" fill="white"/>
</svg>
