<svg xmlns="http://www.w3.org/2000/svg" width="1000.008" height="618.03101" viewBox="0 0 1000.008 618.03103"><path d="M380.2 268.6h31.5v56.6h-31.5z" class="st1" style="fill:#ff5f00" transform="translate(-2898.736 -2239.503) scale(8.58376)"/><path d="M382.2 296.9c0-11.5 5.4-21.7 13.7-28.3-6.1-4.8-13.8-7.7-22.2-7.7-19.9 0-36 16.1-36 36s16.1 36 36 36c8.4 0 16.1-2.9 22.2-7.7-8.3-6.5-13.7-16.8-13.7-28.3z" class="st2" style="fill:#eb001b" transform="translate(-2898.736 -2239.503) scale(8.58376)"/><path d="M454.2 296.9c0 19.9-16.1 36-36 36-8.4 0-16.1-2.9-22.2-7.7 8.4-6.6 13.7-16.8 13.7-28.3s-5.4-21.7-13.7-28.3c6.1-4.8 13.8-7.7 22.2-7.7 19.9 0 36 16.2 36 36z" class="st3" style="fill:#f79e1b" transform="translate(-2898.736 -2239.503) scale(8.58376)"/></svg>