<?xml version="1.0" encoding="UTF-8"?><svg xmlns="http://www.w3.org/2000/svg" xmlns:xlink="http://www.w3.org/1999/xlink" viewBox="0 0 223.71 182.56"><defs><linearGradient id="linear-gradient" x1="160.57" y1="89.15" x2="160.57" y2="81.6" gradientUnits="userSpaceOnUse"><stop offset="0" stop-color="#fff"/><stop offset="1" stop-color="#bcbec0"/></linearGradient><radialGradient id="radial-gradient" cx="392.35" cy="433.87" fx="392.35" fy="433.87" r="17.93" gradientTransform="translate(-295.34 -317.72) scale(.95)" gradientUnits="userSpaceOnUse"><stop offset="0" stop-color="#fff"/><stop offset="1" stop-color="#000101"/></radialGradient><linearGradient id="linear-gradient-2" x1="76.54" y1="91.18" x2="76.54" y2="72.74" gradientUnits="userSpaceOnUse"><stop offset="0" stop-color="#fff"/><stop offset=".53" stop-color="#bcbec0"/><stop offset="1" stop-color="#fff"/></linearGradient><linearGradient id="linear-gradient-3" x1="222.65" y1="43.37" x2="42.18" y2="90.6" gradientUnits="userSpaceOnUse"><stop offset="0" stop-color="#cf1f27"/><stop offset=".48" stop-color="#a11d20"/><stop offset=".59" stop-color="#a41d20"/><stop offset=".68" stop-color="#ae1d22"/><stop offset=".77" stop-color="#c01e24"/><stop offset=".83" stop-color="#cf1f27"/><stop offset=".93" stop-color="#991b1e"/><stop offset=".95" stop-color="#961a1d"/><stop offset=".96" stop-color="#8c191c"/><stop offset=".97" stop-color="#7c181a"/><stop offset=".98" stop-color="#661517"/><stop offset=".99" stop-color="#4a1213"/><stop offset="1" stop-color="#321010"/></linearGradient><linearGradient id="_새_그라디언트_견본_4" x1="92.03" y1="26.42" x2="187.41" y2="106.45" gradientUnits="userSpaceOnUse"><stop offset="0" stop-color="#b81f24"/><stop offset=".02" stop-color="#d71f26"/><stop offset=".03" stop-color="#dd3130"/><stop offset=".07" stop-color="#e95544"/><stop offset=".09" stop-color="#f06a50"/><stop offset=".11" stop-color="#f37355"/><stop offset=".28" stop-color="#f05041"/><stop offset=".48" stop-color="#ed2126"/><stop offset=".71" stop-color="#ed2126"/><stop offset="1" stop-color="#d71f26"/></linearGradient><radialGradient id="radial-gradient-2" cx="362.03" cy="417.59" fx="362.03" fy="417.59" r="181.73" gradientTransform="translate(-295.34 -317.72) scale(.95)" gradientUnits="userSpaceOnUse"><stop offset="0" stop-color="#000101"/><stop offset=".24" stop-color="#fff"/><stop offset=".76" stop-color="#fff"/><stop offset=".78" stop-color="#fafafa"/><stop offset=".81" stop-color="#ebebeb"/><stop offset=".85" stop-color="#d4d4d4"/><stop offset=".88" stop-color="#b3b3b3"/><stop offset=".91" stop-color="#888989"/><stop offset=".95" stop-color="#555"/><stop offset=".99" stop-color="#181919"/><stop offset="1" stop-color="#000101"/></radialGradient></defs><g isolation="isolate"><g id="_레이어_2"><g id="Layer_1"><path d="M106.82,152.42l-35.41-43.59,51.45-63.36h-28.1c-12.59,0-21.22,3.83-28.87,12.82l-27.11,33.34V0H11.57C5.19,0,0,5.21,0,11.61v170.94h27.21c6.38,0,11.57-5.21,11.57-11.61v-45.48l22.04,27.05,18.74,23.07c3.78,4.74,8.75,6.94,13.87,6.94h37.96l-24.55-30.11Z" fill="#fff" stroke-width="0"/><path d="M176.61,182.55c-20.99,0-35.45-14.45-35.45-35.41V11.59c0-6.38,5.21-11.59,11.61-11.59h27.22v139.86c0,5.75,4.66,10.43,10.4,10.43h27.7v20.66c0,6.4-5.21,11.61-11.62,11.61h-29.86Z" fill="#fff" stroke-width="0"/><path d="M141.02,89.22h39.11v-20.53h-39.11v20.53Z" fill="url(#linear-gradient)" mix-blend-mode="multiply" stroke-width="0"/><path d="M66.72,108.95s42.94-52.85,47.71-58.68h-.62c-1.23,1.51-47.54,58.51-47.54,58.51l.45.18Z" fill="url(#radial-gradient)" mix-blend-mode="screen" opacity=".25" stroke-width="0"/><path d="M96.76,49.63c-8.59,0-18.15,4.34-30.4,8.21l-32.29,39.71,36.6,12.19c44.48-54.75,44.03-54.19,48.35-59.48-5.79,0-22.25-.64-22.25-.64Z" fill="url(#linear-gradient-2)" mix-blend-mode="multiply" stroke-width="0"/><path d="M192.99,49.99c-21.95,0-101.56.05-101.56.05-13.77,0-22.85,4.87-29.26,12.67l-19.66,24.23s0-.05-.03-.03c7.13-5.43,16.94-8.67,26.97-8.67h123.54c15.66,0,30.72-4.79,30.72-17.13s-1.41-19.12-1.41-19.12c0,0-7.36,7.98-29.3,7.98Z" fill="url(#linear-gradient-3)" stroke-width="0"/><path d="M42.77,86.62l22.72-27.99c5.62-6.87,12.96-13.23,28.58-13.23h98.91c20.93,0,28.21-7.43,28.29-7.51l2.4-2.54v25.77s.32,3.7-3.09,7.44c-4.77,5.23-14.06,7.89-27.6,7.89h-123.71c-15.77,0-26.51,10.17-26.51,10.17Z" fill="url(#_새_그라디언트_견본_4)" stroke-width="0"/><path d="M223.52,62.44c-.12,2.48-3.41,13.43-30.53,13.43h-121.8c-11.25,0-20,3.19-28.31,10.53l-.21.25c6.52-5.25,14.59-10.25,28.52-10.25h121.8c30.59,0,30.53-13.93,30.53-13.93v-.02Z" fill="url(#radial-gradient-2)" mix-blend-mode="screen" opacity=".7" stroke-width="0"/></g></g></g></svg>