<?xml version="1.0" encoding="UTF-8"?><svg id="_레이어_2" xmlns="http://www.w3.org/2000/svg" viewBox="0 0 111.04 29.02"><g id="_레이어_1-2"><path d="M93.16,7.3c0,.26.04.52.13.76.44,1.11,1.55,1.79,2.96,1.21.33-.14,9.67-4,9.67-4,0,0-3.67,9.57-3.81,9.93-.53,1.38.11,2.61,1.2,3.03.24.09.5.14.75.13.89,0,1.68-.54,2.07-1.63.06-.16,4.65-13.13,4.76-13.44.06-.18.17-.62.17-.92,0-.64-.23-1.25-.68-1.7C109.92.23,109.34,0,108.72,0c-.3,0-.54.05-.91.17-.22.07-12.07,4.6-13.08,4.99-1.02.39-1.57,1.22-1.57,2.13" fill="#e60012" stroke-width="0"/><path d="M73.89,22.08c-2.46,0-4.46,1.56-4.47,3.48,0,1.9,2.01,3.45,4.47,3.45s4.47-1.55,4.47-3.45c0-1.92-2.01-3.48-4.47-3.48ZM73.89,27.34c-1.25,0-2.13-.74-2.13-1.79,0-1.04.88-1.78,2.13-1.79,1.26,0,2.14.74,2.14,1.79,0,1.05-.88,1.78-2.14,1.79Z" fill="#3e3a39" stroke-width="0"/><polygon points="78.37 14.36 76.02 14.36 76.02 21.78 78.37 21.78 78.37 18.25 80.51 18.25 80.51 16.55 78.37 16.55 78.37 14.36" fill="#3e3a39" stroke-width="0"/><path d="M74.41,18.6c0-.79-.35-1.52-.93-2.08h1.41v-1.7h-3.1v-1.24h-2.35v1.24h-3.13v1.7h1.41c-.58.56-.93,1.28-.93,2.08,0,1.75,1.71,3.18,3.81,3.19,2.1,0,3.81-1.43,3.81-3.19ZM68.98,18.52c0-1.02.62-1.66,1.62-1.66.96,0,1.61.67,1.61,1.66,0,.99-.65,1.65-1.61,1.66-.98,0-1.62-.66-1.62-1.66Z" fill="#3e3a39" stroke-width="0"/><polygon points="90.1 19.93 90.1 17.4 87.75 17.4 87.75 19.93 82.46 19.93 82.46 21.67 96.75 21.67 96.75 19.93 90.1 19.93" fill="#3e3a39" stroke-width="0"/><path d="M92.25,19.12h2.01s.59-1.63.59-5.11v-.02h-10.16v1.7h7.73c0,2.17-.18,3.42-.18,3.42Z" fill="#3e3a39" stroke-width="0"/><path d="M89.62,22.38c-2.46,0-4.46,1.5-4.47,3.34,0,1.82,2.01,3.31,4.47,3.31s4.47-1.49,4.47-3.31c0-1.84-2.01-3.34-4.47-3.34ZM89.62,27.36c-1.25,0-2.13-.68-2.13-1.65,0-.96.88-1.64,2.13-1.64,1.26,0,2.14.68,2.14,1.64,0,.96-.88,1.64-2.14,1.65Z" fill="#3e3a39" stroke-width="0"/><path d="M4.25,14.72c-2.34,0-4.25,2.28-4.25,5.08s1.91,5.08,4.25,5.08,4.25-2.28,4.25-5.08-1.91-5.08-4.25-5.08ZM4.25,23.06c-1.06,0-1.92-1.47-1.92-3.27s.86-3.27,1.92-3.27,1.92,1.47,1.92,3.27-.86,3.27-1.92,3.27Z" fill="#3e3a39" stroke-width="0"/><rect x="26.73" y="14.36" width="2.35" height="14.34" fill="#3e3a39" stroke-width="0"/><polygon points="12.17 14.36 9.82 14.36 9.82 28.71 12.17 28.71 12.17 20.46 14.47 20.46 14.47 18.72 12.17 18.72 12.17 14.36" fill="#3e3a39" stroke-width="0"/><path d="M36.85,14.72c-2.35,0-4.25,2.28-4.25,5.08s1.91,5.08,4.25,5.08,4.25-2.28,4.25-5.08-1.91-5.08-4.25-5.08ZM36.85,23.06c-1.06,0-1.92-1.47-1.92-3.27s.86-3.27,1.92-3.27,1.91,1.47,1.91,3.27-.86,3.27-1.91,3.27Z" fill="#3e3a39" stroke-width="0"/><polygon points="44.77 14.36 42.42 14.36 42.42 28.71 44.77 28.71 44.77 20.46 47.08 20.46 47.08 18.72 44.77 18.72 44.77 14.36" fill="#3e3a39" stroke-width="0"/><polygon points="61.18 14.36 58.83 14.36 58.83 28.71 61.18 28.71 61.18 20.46 63.48 20.46 63.48 18.72 61.18 18.72 61.18 14.36" fill="#3e3a39" stroke-width="0"/><path d="M21.22,14.87h-2.32l-2.3,9.35h2.28l1.68-6.86c1.96,1.71,2.67,6.86,2.67,6.86h2.14s-.42-6.22-4.16-9.35Z" fill="#3e3a39" stroke-width="0"/><path d="M53.29,22.48c-.54,0-.81-.25-.82-.75v-6.87h-2.37v7.3c0,1.29,1.11,2.05,2.19,2.06h3.84c.69,0,1.44-.1,1.45-.11v-1.7s-.56.07-1.26.07h-3.02Z" fill="#3e3a39" stroke-width="0"/></g></svg>